<svg xmlns="http://www.w3.org/2000/svg" xmlns:xlink="http://www.w3.org/1999/xlink" width="300" zoomAndPan="magnify" viewBox="0 0 224.87999 74.999997" height="100" preserveAspectRatio="xMidYMid meet" version="1.0"><defs><g/></defs><g fill="#4dbbff" fill-opacity="1"><g transform="translate(10.220768, 55.125004)"><g><path d="M 24.8125 -35.265625 L 24.8125 -28.078125 C 24.207031 -28.453125 23.585938 -28.660156 22.953125 -28.703125 C 22.328125 -28.753906 21.691406 -28.734375 21.046875 -28.640625 C 19.328125 -28.546875 17.769531 -27.894531 16.375 -26.6875 C 14.976562 -25.476562 13.882812 -23.851562 13.09375 -21.8125 C 12.3125 -19.769531 11.921875 -17.425781 11.921875 -14.78125 L 11.921875 0 L 4.390625 0 L 4.390625 -34.84375 L 11.921875 -34.84375 L 11.921875 -27.875 C 13.035156 -30.425781 14.4375 -32.398438 16.125 -33.796875 C 17.820312 -35.191406 19.71875 -35.890625 21.8125 -35.890625 C 22.414062 -35.890625 22.960938 -35.832031 23.453125 -35.71875 C 23.941406 -35.601562 24.394531 -35.453125 24.8125 -35.265625 Z M 24.8125 -35.265625 "/></g></g></g><g fill="#4dbbff" fill-opacity="1"><g transform="translate(37.466131, 55.125004)"><g><path d="M 2.234375 -17.421875 C 2.234375 -21.085938 2.914062 -24.300781 4.28125 -27.0625 C 5.65625 -29.832031 7.5625 -31.992188 10 -33.546875 C 12.4375 -35.109375 15.234375 -35.890625 18.390625 -35.890625 C 21.691406 -35.890625 24.523438 -35.078125 26.890625 -33.453125 C 29.265625 -31.828125 31.078125 -29.628906 32.328125 -26.859375 C 33.585938 -24.097656 34.191406 -21 34.140625 -17.5625 C 34.140625 -17.050781 34.113281 -16.550781 34.0625 -16.0625 C 34.019531 -15.570312 33.976562 -15.070312 33.9375 -14.5625 L 10.515625 -14.5625 C 10.941406 -11.632812 12.195312 -9.414062 14.28125 -7.90625 C 16.375 -6.394531 18.742188 -5.640625 21.390625 -5.640625 C 23.160156 -5.640625 25.039062 -5.976562 27.03125 -6.65625 C 29.03125 -7.332031 30.84375 -8.226562 32.46875 -9.34375 L 34 -3.28125 C 32.332031 -1.976562 30.300781 -0.929688 27.90625 -0.140625 C 25.519531 0.648438 23.09375 1.046875 20.625 1.046875 C 16.90625 1.046875 13.664062 0.289062 10.90625 -1.21875 C 8.144531 -2.726562 6.007812 -4.863281 4.5 -7.625 C 2.988281 -10.394531 2.234375 -13.660156 2.234375 -17.421875 Z M 10.171875 -19.4375 L 26.203125 -19.4375 C 26.109375 -22.175781 25.429688 -24.488281 24.171875 -26.375 C 22.921875 -28.257812 21.019531 -29.203125 18.46875 -29.203125 C 16.1875 -29.203125 14.28125 -28.351562 12.75 -26.65625 C 11.21875 -24.957031 10.359375 -22.550781 10.171875 -19.4375 Z M 10.171875 -19.4375 "/></g></g></g><g fill="#4dbbff" fill-opacity="1"><g transform="translate(73.839777, 55.125004)"><g><path d="M 1.8125 -3.28125 L 3.546875 -9.609375 C 5.316406 -8.546875 7.441406 -7.617188 9.921875 -6.828125 C 12.410156 -6.035156 14.722656 -5.640625 16.859375 -5.640625 C 18.816406 -5.640625 20.328125 -5.960938 21.390625 -6.609375 C 22.460938 -7.265625 23 -8.082031 23 -9.0625 C 23 -9.988281 22.519531 -10.800781 21.5625 -11.5 C 20.613281 -12.195312 19.382812 -12.859375 17.875 -13.484375 C 16.363281 -14.109375 14.75 -14.78125 13.03125 -15.5 C 11.3125 -16.21875 9.695312 -17.078125 8.1875 -18.078125 C 6.675781 -19.078125 5.441406 -20.285156 4.484375 -21.703125 C 3.535156 -23.117188 3.0625 -24.828125 3.0625 -26.828125 C 3.0625 -29.710938 4.128906 -31.941406 6.265625 -33.515625 C 8.410156 -35.097656 11.382812 -35.890625 15.1875 -35.890625 C 18.207031 -35.890625 20.945312 -35.46875 23.40625 -34.625 C 25.875 -33.789062 28.015625 -32.863281 29.828125 -31.84375 L 27.734375 -25.5 C 25.972656 -26.4375 24.113281 -27.285156 22.15625 -28.046875 C 20.207031 -28.816406 18.140625 -29.203125 15.953125 -29.203125 C 14.328125 -29.203125 13.0625 -28.929688 12.15625 -28.390625 C 11.25 -27.859375 10.796875 -27.0625 10.796875 -26 C 10.796875 -24.832031 11.269531 -23.84375 12.21875 -23.03125 C 13.175781 -22.21875 14.421875 -21.472656 15.953125 -20.796875 C 17.492188 -20.128906 19.109375 -19.457031 20.796875 -18.78125 C 22.492188 -18.101562 24.109375 -17.320312 25.640625 -16.4375 C 27.171875 -15.5625 28.410156 -14.492188 29.359375 -13.234375 C 30.316406 -11.984375 30.796875 -10.429688 30.796875 -8.578125 C 30.796875 -5.828125 29.585938 -3.535156 27.171875 -1.703125 C 24.753906 0.128906 21.390625 1.046875 17.078125 1.046875 C 14.148438 1.046875 11.359375 0.628906 8.703125 -0.203125 C 6.054688 -1.046875 3.757812 -2.070312 1.8125 -3.28125 Z M 1.8125 -3.28125 "/></g></g></g><g fill="#4dbbff" fill-opacity="1"><g transform="translate(107.077737, 55.125004)"><g><path d="M 20.5625 1.046875 C 16.976562 1.046875 13.816406 0.28125 11.078125 -1.25 C 8.335938 -2.78125 6.210938 -4.941406 4.703125 -7.734375 C 3.191406 -10.523438 2.4375 -13.753906 2.4375 -17.421875 C 2.4375 -21.140625 3.191406 -24.378906 4.703125 -27.140625 C 6.210938 -29.910156 8.335938 -32.0625 11.078125 -33.59375 C 13.816406 -35.125 16.976562 -35.890625 20.5625 -35.890625 C 24.1875 -35.890625 27.34375 -35.125 30.03125 -33.59375 C 32.726562 -32.0625 34.832031 -29.910156 36.34375 -27.140625 C 37.851562 -24.378906 38.609375 -21.140625 38.609375 -17.421875 C 38.609375 -13.753906 37.851562 -10.523438 36.34375 -7.734375 C 34.832031 -4.941406 32.726562 -2.78125 30.03125 -1.25 C 27.34375 0.28125 24.1875 1.046875 20.5625 1.046875 Z M 20.5625 -5.640625 C 23.71875 -5.640625 26.222656 -6.753906 28.078125 -8.984375 C 29.941406 -11.210938 30.875 -14.023438 30.875 -17.421875 C 30.875 -20.859375 29.941406 -23.679688 28.078125 -25.890625 C 26.222656 -28.097656 23.71875 -29.203125 20.5625 -29.203125 C 17.445312 -29.203125 14.945312 -28.097656 13.0625 -25.890625 C 11.1875 -23.679688 10.25 -20.859375 10.25 -17.421875 C 10.25 -14.023438 11.1875 -11.210938 13.0625 -8.984375 C 14.945312 -6.753906 17.445312 -5.640625 20.5625 -5.640625 Z M 20.5625 -5.640625 "/></g></g></g><g fill="#4dbbff" fill-opacity="1"><g transform="translate(148.189707, 55.125004)"><g><path d="M 24.8125 -35.265625 L 24.8125 -28.078125 C 24.207031 -28.453125 23.585938 -28.660156 22.953125 -28.703125 C 22.328125 -28.753906 21.691406 -28.734375 21.046875 -28.640625 C 19.328125 -28.546875 17.769531 -27.894531 16.375 -26.6875 C 14.976562 -25.476562 13.882812 -23.851562 13.09375 -21.8125 C 12.3125 -19.769531 11.921875 -17.425781 11.921875 -14.78125 L 11.921875 0 L 4.390625 0 L 4.390625 -34.84375 L 11.921875 -34.84375 L 11.921875 -27.875 C 13.035156 -30.425781 14.4375 -32.398438 16.125 -33.796875 C 17.820312 -35.191406 19.71875 -35.890625 21.8125 -35.890625 C 22.414062 -35.890625 22.960938 -35.832031 23.453125 -35.71875 C 23.941406 -35.601562 24.394531 -35.453125 24.8125 -35.265625 Z M 24.8125 -35.265625 "/></g></g></g><g fill="#4dbbff" fill-opacity="1"><g transform="translate(175.43507, 55.125004)"><g><path d="M 32.0625 -6.90625 C 32.425781 -6.53125 32.9375 -6.34375 33.59375 -6.34375 C 34.425781 -6.34375 35.296875 -6.5625 36.203125 -7 C 37.109375 -7.445312 37.703125 -7.785156 37.984375 -8.015625 L 37.984375 -1.109375 C 37.421875 -0.503906 36.675781 -0.0390625 35.75 0.28125 C 34.820312 0.601562 33.878906 0.8125 32.921875 0.90625 C 31.972656 1 31.171875 1.019531 30.515625 0.96875 C 29.265625 0.96875 28.242188 0.703125 27.453125 0.171875 C 26.660156 -0.359375 26.046875 -0.972656 25.609375 -1.671875 C 25.171875 -2.367188 24.867188 -2.992188 24.703125 -3.546875 C 24.535156 -4.109375 24.453125 -4.4375 24.453125 -4.53125 L 24.453125 -10.796875 C 23.160156 -7.359375 21.328125 -4.523438 18.953125 -2.296875 C 16.585938 -0.0664062 13.988281 1.046875 11.15625 1.046875 C 9.800781 1.046875 8.4375 0.742188 7.0625 0.140625 C 5.695312 -0.460938 4.570312 -1.414062 3.6875 -2.71875 C 2.8125 -4.019531 2.375 -5.691406 2.375 -7.734375 C 2.375 -9.960938 2.894531 -11.863281 3.9375 -13.4375 C 4.976562 -15.019531 6.3125 -16.359375 7.9375 -17.453125 C 9.570312 -18.546875 11.25 -19.488281 12.96875 -20.28125 C 14.78125 -21.070312 16.601562 -21.753906 18.4375 -22.328125 C 20.269531 -22.910156 22.046875 -23.457031 23.765625 -23.96875 C 23.109375 -25.78125 22.082031 -27.066406 20.6875 -27.828125 C 19.300781 -28.597656 17.703125 -28.984375 15.890625 -28.984375 C 14.492188 -28.984375 13.0625 -28.796875 11.59375 -28.421875 C 10.132812 -28.054688 8.8125 -27.582031 7.625 -27 C 6.445312 -26.425781 5.507812 -25.789062 4.8125 -25.09375 L 3.203125 -32.0625 C 4.273438 -33.03125 6.019531 -33.894531 8.4375 -34.65625 C 10.851562 -35.425781 13.40625 -35.8125 16.09375 -35.8125 C 21.300781 -35.8125 25.273438 -34.265625 28.015625 -31.171875 C 30.753906 -28.085938 32.101562 -23.921875 32.0625 -18.671875 Z M 24.53125 -19.03125 L 24.53125 -19.375 C 24.53125 -19.414062 24.53125 -19.4375 24.53125 -19.4375 C 24.53125 -19.4375 24.53125 -19.460938 24.53125 -19.515625 C 23.226562 -19.140625 21.84375 -18.726562 20.375 -18.28125 C 18.914062 -17.84375 17.394531 -17.273438 15.8125 -16.578125 C 14.375 -15.984375 12.992188 -15.082031 11.671875 -13.875 C 10.347656 -12.664062 9.6875 -11.203125 9.6875 -9.484375 C 9.6875 -8.035156 10.160156 -6.914062 11.109375 -6.125 C 12.066406 -5.34375 13.125 -4.953125 14.28125 -4.953125 C 16 -4.953125 17.625 -5.566406 19.15625 -6.796875 C 20.695312 -8.023438 21.960938 -9.695312 22.953125 -11.8125 C 23.953125 -13.925781 24.476562 -16.332031 24.53125 -19.03125 Z M 24.53125 -19.03125 "/></g></g></g></svg>