<svg xmlns="http://www.w3.org/2000/svg" xmlns:xlink="http://www.w3.org/1999/xlink" width="300" zoomAndPan="magnify" viewBox="0 0 224.87999 74.999997" height="100" preserveAspectRatio="xMidYMid meet" version="1.0"><defs><g/></defs><g fill="#000000" fill-opacity="1"><g transform="translate(7.495999, 56.593887)"><g><path d="M 25.46875 -36.203125 L 25.46875 -28.828125 C 24.851562 -29.210938 24.222656 -29.425781 23.578125 -29.46875 C 22.929688 -29.519531 22.273438 -29.5 21.609375 -29.40625 C 19.835938 -29.3125 18.238281 -28.644531 16.8125 -27.40625 C 15.382812 -26.164062 14.265625 -24.492188 13.453125 -22.390625 C 12.640625 -20.296875 12.234375 -17.890625 12.234375 -15.171875 L 12.234375 0 L 4.5 0 L 4.5 -35.765625 L 12.234375 -35.765625 L 12.234375 -28.625 C 13.378906 -31.238281 14.820312 -33.257812 16.5625 -34.6875 C 18.300781 -36.125 20.242188 -36.84375 22.390625 -36.84375 C 23.015625 -36.84375 23.578125 -36.78125 24.078125 -36.65625 C 24.578125 -36.539062 25.039062 -36.390625 25.46875 -36.203125 Z M 25.46875 -36.203125 "/></g></g></g><g fill="#000000" fill-opacity="1"><g transform="translate(35.467619, 56.593887)"><g><path d="M 2.296875 -17.890625 C 2.296875 -21.648438 3 -24.945312 4.40625 -27.78125 C 5.8125 -30.625 7.765625 -32.84375 10.265625 -34.4375 C 12.765625 -36.039062 15.640625 -36.84375 18.890625 -36.84375 C 22.273438 -36.84375 25.179688 -36.007812 27.609375 -34.34375 C 30.046875 -32.675781 31.90625 -30.421875 33.1875 -27.578125 C 34.476562 -24.742188 35.101562 -21.5625 35.0625 -18.03125 C 35.0625 -17.507812 35.035156 -16.992188 34.984375 -16.484375 C 34.941406 -15.984375 34.894531 -15.472656 34.84375 -14.953125 L 10.796875 -14.953125 C 11.234375 -11.953125 12.523438 -9.675781 14.671875 -8.125 C 16.816406 -6.570312 19.25 -5.796875 21.96875 -5.796875 C 23.78125 -5.796875 25.710938 -6.140625 27.765625 -6.828125 C 29.816406 -7.523438 31.675781 -8.445312 33.34375 -9.59375 L 34.921875 -3.359375 C 33.203125 -2.023438 31.113281 -0.953125 28.65625 -0.140625 C 26.195312 0.671875 23.703125 1.078125 21.171875 1.078125 C 17.359375 1.078125 14.03125 0.300781 11.1875 -1.25 C 8.351562 -2.800781 6.160156 -4.992188 4.609375 -7.828125 C 3.066406 -10.671875 2.296875 -14.023438 2.296875 -17.890625 Z M 10.453125 -19.96875 L 26.90625 -19.96875 C 26.8125 -22.78125 26.117188 -25.148438 24.828125 -27.078125 C 23.535156 -29.015625 21.578125 -29.984375 18.953125 -29.984375 C 16.617188 -29.984375 14.664062 -29.109375 13.09375 -27.359375 C 11.519531 -25.617188 10.640625 -23.15625 10.453125 -19.96875 Z M 10.453125 -19.96875 "/></g></g></g><g fill="#000000" fill-opacity="1"><g transform="translate(72.810846, 56.593887)"><g><path d="M 1.859375 -3.359375 L 3.65625 -9.875 C 5.46875 -8.78125 7.644531 -7.828125 10.1875 -7.015625 C 12.738281 -6.203125 15.113281 -5.796875 17.3125 -5.796875 C 19.3125 -5.796875 20.859375 -6.128906 21.953125 -6.796875 C 23.054688 -7.460938 23.609375 -8.296875 23.609375 -9.296875 C 23.609375 -10.253906 23.117188 -11.085938 22.140625 -11.796875 C 21.160156 -12.515625 19.894531 -13.195312 18.34375 -13.84375 C 16.800781 -14.488281 15.144531 -15.179688 13.375 -15.921875 C 11.613281 -16.660156 9.957031 -17.539062 8.40625 -18.5625 C 6.851562 -19.59375 5.585938 -20.832031 4.609375 -22.28125 C 3.628906 -23.738281 3.140625 -25.492188 3.140625 -27.546875 C 3.140625 -30.503906 4.238281 -32.789062 6.4375 -34.40625 C 8.632812 -36.03125 11.6875 -36.84375 15.59375 -36.84375 C 18.695312 -36.84375 21.507812 -36.410156 24.03125 -35.546875 C 26.5625 -34.691406 28.757812 -33.742188 30.625 -32.703125 L 28.46875 -26.1875 C 26.65625 -27.132812 24.75 -28.003906 22.75 -28.796875 C 20.75 -29.585938 18.628906 -29.984375 16.390625 -29.984375 C 14.710938 -29.984375 13.410156 -29.707031 12.484375 -29.15625 C 11.554688 -28.601562 11.09375 -27.78125 11.09375 -26.6875 C 11.09375 -25.488281 11.578125 -24.472656 12.546875 -23.640625 C 13.523438 -22.804688 14.800781 -22.039062 16.375 -21.34375 C 17.957031 -20.65625 19.617188 -19.96875 21.359375 -19.28125 C 23.097656 -18.59375 24.753906 -17.796875 26.328125 -16.890625 C 27.898438 -15.984375 29.175781 -14.882812 30.15625 -13.59375 C 31.132812 -12.300781 31.625 -10.703125 31.625 -8.796875 C 31.625 -5.984375 30.382812 -3.632812 27.90625 -1.75 C 25.425781 0.132812 21.96875 1.078125 17.53125 1.078125 C 14.519531 1.078125 11.65625 0.648438 8.9375 -0.203125 C 6.21875 -1.066406 3.859375 -2.117188 1.859375 -3.359375 Z M 1.859375 -3.359375 "/></g></g></g><g fill="#000000" fill-opacity="1"><g transform="translate(106.934803, 56.593887)"><g><path d="M 21.109375 1.078125 C 17.429688 1.078125 14.1875 0.289062 11.375 -1.28125 C 8.5625 -2.863281 6.378906 -5.082031 4.828125 -7.9375 C 3.273438 -10.800781 2.5 -14.117188 2.5 -17.890625 C 2.5 -21.703125 3.273438 -25.023438 4.828125 -27.859375 C 6.378906 -30.703125 8.5625 -32.910156 11.375 -34.484375 C 14.1875 -36.054688 17.429688 -36.84375 21.109375 -36.84375 C 24.828125 -36.84375 28.066406 -36.054688 30.828125 -34.484375 C 33.597656 -32.910156 35.757812 -30.703125 37.3125 -27.859375 C 38.863281 -25.023438 39.640625 -21.703125 39.640625 -17.890625 C 39.640625 -14.117188 38.863281 -10.800781 37.3125 -7.9375 C 35.757812 -5.082031 33.597656 -2.863281 30.828125 -1.28125 C 28.066406 0.289062 24.828125 1.078125 21.109375 1.078125 Z M 21.109375 -5.796875 C 24.347656 -5.796875 26.921875 -6.9375 28.828125 -9.21875 C 30.734375 -11.507812 31.6875 -14.398438 31.6875 -17.890625 C 31.6875 -21.421875 30.734375 -24.316406 28.828125 -26.578125 C 26.921875 -28.847656 24.347656 -29.984375 21.109375 -29.984375 C 17.910156 -29.984375 15.34375 -28.847656 13.40625 -26.578125 C 11.476562 -24.316406 10.515625 -21.421875 10.515625 -17.890625 C 10.515625 -14.398438 11.476562 -11.507812 13.40625 -9.21875 C 15.34375 -6.9375 17.910156 -5.796875 21.109375 -5.796875 Z M 21.109375 -5.796875 "/></g></g></g><g fill="#000000" fill-opacity="1"><g transform="translate(149.142659, 56.593887)"><g><path d="M 25.46875 -36.203125 L 25.46875 -28.828125 C 24.851562 -29.210938 24.222656 -29.425781 23.578125 -29.46875 C 22.929688 -29.519531 22.273438 -29.5 21.609375 -29.40625 C 19.835938 -29.3125 18.238281 -28.644531 16.8125 -27.40625 C 15.382812 -26.164062 14.265625 -24.492188 13.453125 -22.390625 C 12.640625 -20.296875 12.234375 -17.890625 12.234375 -15.171875 L 12.234375 0 L 4.5 0 L 4.5 -35.765625 L 12.234375 -35.765625 L 12.234375 -28.625 C 13.378906 -31.238281 14.820312 -33.257812 16.5625 -34.6875 C 18.300781 -36.125 20.242188 -36.84375 22.390625 -36.84375 C 23.015625 -36.84375 23.578125 -36.78125 24.078125 -36.65625 C 24.578125 -36.539062 25.039062 -36.390625 25.46875 -36.203125 Z M 25.46875 -36.203125 "/></g></g></g><g fill="#000000" fill-opacity="1"><g transform="translate(177.114279, 56.593887)"><g><path d="M 32.90625 -7.078125 C 33.289062 -6.703125 33.816406 -6.515625 34.484375 -6.515625 C 35.335938 -6.515625 36.226562 -6.738281 37.15625 -7.1875 C 38.09375 -7.644531 38.707031 -7.992188 39 -8.234375 L 39 -1.140625 C 38.425781 -0.523438 37.660156 -0.0507812 36.703125 0.28125 C 35.742188 0.613281 34.773438 0.828125 33.796875 0.921875 C 32.828125 1.023438 32.007812 1.050781 31.34375 1 C 30.050781 1 29 0.722656 28.1875 0.171875 C 27.375 -0.367188 26.738281 -1 26.28125 -1.71875 C 25.832031 -2.4375 25.523438 -3.078125 25.359375 -3.640625 C 25.191406 -4.210938 25.109375 -4.550781 25.109375 -4.65625 L 25.109375 -11.09375 C 23.773438 -7.5625 21.890625 -4.648438 19.453125 -2.359375 C 17.023438 -0.0664062 14.359375 1.078125 11.453125 1.078125 C 10.066406 1.078125 8.671875 0.765625 7.265625 0.140625 C 5.859375 -0.472656 4.703125 -1.445312 3.796875 -2.78125 C 2.890625 -4.125 2.4375 -5.84375 2.4375 -7.9375 C 2.4375 -10.226562 2.972656 -12.179688 4.046875 -13.796875 C 5.117188 -15.421875 6.488281 -16.796875 8.15625 -17.921875 C 9.820312 -19.046875 11.539062 -20.007812 13.3125 -20.8125 C 15.164062 -21.625 17.035156 -22.328125 18.921875 -22.921875 C 20.804688 -23.523438 22.628906 -24.085938 24.390625 -24.609375 C 23.722656 -26.472656 22.675781 -27.796875 21.25 -28.578125 C 19.820312 -29.367188 18.175781 -29.765625 16.3125 -29.765625 C 14.882812 -29.765625 13.414062 -29.570312 11.90625 -29.1875 C 10.40625 -28.8125 9.046875 -28.320312 7.828125 -27.71875 C 6.617188 -27.125 5.65625 -26.46875 4.9375 -25.75 L 3.296875 -32.90625 C 4.390625 -33.90625 6.175781 -34.800781 8.65625 -35.59375 C 11.132812 -36.382812 13.757812 -36.78125 16.53125 -36.78125 C 21.875 -36.78125 25.953125 -35.191406 28.765625 -32.015625 C 31.578125 -28.847656 32.957031 -24.566406 32.90625 -19.171875 Z M 25.1875 -19.53125 L 25.1875 -19.890625 C 25.1875 -19.941406 25.1875 -19.96875 25.1875 -19.96875 C 25.1875 -19.96875 25.1875 -19.988281 25.1875 -20.03125 C 23.851562 -19.644531 22.429688 -19.222656 20.921875 -18.765625 C 19.421875 -18.316406 17.859375 -17.738281 16.234375 -17.03125 C 14.753906 -16.40625 13.332031 -15.472656 11.96875 -14.234375 C 10.613281 -12.992188 9.9375 -11.492188 9.9375 -9.734375 C 9.9375 -8.253906 10.425781 -7.109375 11.40625 -6.296875 C 12.382812 -5.484375 13.472656 -5.078125 14.671875 -5.078125 C 16.429688 -5.078125 18.097656 -5.707031 19.671875 -6.96875 C 21.242188 -8.238281 22.539062 -9.957031 23.5625 -12.125 C 24.59375 -14.289062 25.132812 -16.757812 25.1875 -19.53125 Z M 25.1875 -19.53125 "/></g></g></g></svg>