<svg xmlns="http://www.w3.org/2000/svg" xmlns:xlink="http://www.w3.org/1999/xlink" width="300" zoomAndPan="magnify" viewBox="0 0 224.87999 74.999997" height="100" preserveAspectRatio="xMidYMid meet" version="1.0"><defs><g/></defs><g fill="#ffffff" fill-opacity="1"><g transform="translate(7.495999, 52.536827)"><g><path d="M 25.375 -36.0625 L 25.375 -28.71875 C 24.757812 -29.101562 24.128906 -29.316406 23.484375 -29.359375 C 22.847656 -29.410156 22.195312 -29.390625 21.53125 -29.296875 C 19.769531 -29.203125 18.175781 -28.535156 16.75 -27.296875 C 15.320312 -26.066406 14.203125 -24.40625 13.390625 -22.3125 C 12.585938 -20.21875 12.1875 -17.816406 12.1875 -15.109375 L 12.1875 0 L 4.484375 0 L 4.484375 -35.640625 L 12.1875 -35.640625 L 12.1875 -28.515625 C 13.332031 -31.128906 14.769531 -33.144531 16.5 -34.5625 C 18.238281 -35.988281 20.175781 -36.703125 22.3125 -36.703125 C 22.925781 -36.703125 23.484375 -36.644531 23.984375 -36.53125 C 24.484375 -36.414062 24.945312 -36.257812 25.375 -36.0625 Z M 25.375 -36.0625 "/></g></g></g><g fill="#ffffff" fill-opacity="1"><g transform="translate(35.362007, 52.536827)"><g><path d="M 2.28125 -17.8125 C 2.28125 -21.570312 2.976562 -24.863281 4.375 -27.6875 C 5.78125 -30.519531 7.726562 -32.726562 10.21875 -34.3125 C 12.71875 -35.90625 15.582031 -36.703125 18.8125 -36.703125 C 22.1875 -36.703125 25.085938 -35.867188 27.515625 -34.203125 C 29.941406 -32.546875 31.796875 -30.300781 33.078125 -27.46875 C 34.359375 -24.644531 34.972656 -21.476562 34.921875 -17.96875 C 34.921875 -17.4375 34.894531 -16.921875 34.84375 -16.421875 C 34.800781 -15.929688 34.757812 -15.421875 34.71875 -14.890625 L 10.765625 -14.890625 C 11.191406 -11.898438 12.472656 -9.632812 14.609375 -8.09375 C 16.742188 -6.550781 19.171875 -5.78125 21.890625 -5.78125 C 23.691406 -5.78125 25.613281 -6.125 27.65625 -6.8125 C 29.695312 -7.5 31.550781 -8.410156 33.21875 -9.546875 L 34.78125 -3.34375 C 33.070312 -2.019531 30.992188 -0.953125 28.546875 -0.140625 C 26.097656 0.660156 23.613281 1.0625 21.09375 1.0625 C 17.289062 1.0625 13.976562 0.289062 11.15625 -1.25 C 8.332031 -2.789062 6.144531 -4.972656 4.59375 -7.796875 C 3.050781 -10.628906 2.28125 -13.96875 2.28125 -17.8125 Z M 10.40625 -19.890625 L 26.796875 -19.890625 C 26.703125 -22.691406 26.015625 -25.050781 24.734375 -26.96875 C 23.453125 -28.894531 21.503906 -29.859375 18.890625 -29.859375 C 16.554688 -29.859375 14.601562 -28.988281 13.03125 -27.25 C 11.46875 -25.519531 10.59375 -23.066406 10.40625 -19.890625 Z M 10.40625 -19.890625 "/></g></g></g><g fill="#ffffff" fill-opacity="1"><g transform="translate(72.564237, 52.536827)"><g><path d="M 1.859375 -3.34375 L 3.640625 -9.84375 C 5.441406 -8.75 7.613281 -7.796875 10.15625 -6.984375 C 12.695312 -6.179688 15.0625 -5.78125 17.25 -5.78125 C 19.25 -5.78125 20.789062 -6.109375 21.875 -6.765625 C 22.96875 -7.429688 23.515625 -8.265625 23.515625 -9.265625 C 23.515625 -10.210938 23.023438 -11.039062 22.046875 -11.75 C 21.078125 -12.46875 19.820312 -13.144531 18.28125 -13.78125 C 16.738281 -14.425781 15.085938 -15.117188 13.328125 -15.859375 C 11.566406 -16.597656 9.914062 -17.476562 8.375 -18.5 C 6.832031 -19.519531 5.570312 -20.753906 4.59375 -22.203125 C 3.625 -23.648438 3.140625 -25.394531 3.140625 -27.4375 C 3.140625 -30.382812 4.226562 -32.664062 6.40625 -34.28125 C 8.59375 -35.894531 11.640625 -36.703125 15.546875 -36.703125 C 18.628906 -36.703125 21.429688 -36.273438 23.953125 -35.421875 C 26.472656 -34.566406 28.660156 -33.617188 30.515625 -32.578125 L 28.375 -26.09375 C 26.5625 -27.039062 24.65625 -27.90625 22.65625 -28.6875 C 20.664062 -29.46875 18.554688 -29.859375 16.328125 -29.859375 C 14.660156 -29.859375 13.363281 -29.585938 12.4375 -29.046875 C 11.507812 -28.503906 11.046875 -27.6875 11.046875 -26.59375 C 11.046875 -25.40625 11.53125 -24.394531 12.5 -23.5625 C 13.476562 -22.726562 14.75 -21.96875 16.3125 -21.28125 C 17.882812 -20.59375 19.535156 -19.898438 21.265625 -19.203125 C 23.003906 -18.515625 24.65625 -17.71875 26.21875 -16.8125 C 27.789062 -15.914062 29.0625 -14.828125 30.03125 -13.546875 C 31.007812 -12.265625 31.5 -10.671875 31.5 -8.765625 C 31.5 -5.960938 30.265625 -3.625 27.796875 -1.75 C 25.328125 0.125 21.882812 1.0625 17.46875 1.0625 C 14.46875 1.0625 11.613281 0.632812 8.90625 -0.21875 C 6.195312 -1.070312 3.847656 -2.113281 1.859375 -3.34375 Z M 1.859375 -3.34375 "/></g></g></g><g fill="#ffffff" fill-opacity="1"><g transform="translate(106.559352, 52.536827)"><g><path d="M 21.03125 1.0625 C 17.375 1.0625 14.140625 0.28125 11.328125 -1.28125 C 8.523438 -2.851562 6.351562 -5.0625 4.8125 -7.90625 C 3.269531 -10.757812 2.5 -14.0625 2.5 -17.8125 C 2.5 -21.613281 3.269531 -24.925781 4.8125 -27.75 C 6.351562 -30.582031 8.523438 -32.78125 11.328125 -34.34375 C 14.140625 -35.914062 17.375 -36.703125 21.03125 -36.703125 C 24.738281 -36.703125 27.96875 -35.914062 30.71875 -34.34375 C 33.476562 -32.78125 35.628906 -30.582031 37.171875 -27.75 C 38.710938 -24.925781 39.484375 -21.613281 39.484375 -17.8125 C 39.484375 -14.0625 38.710938 -10.757812 37.171875 -7.90625 C 35.628906 -5.0625 33.476562 -2.851562 30.71875 -1.28125 C 27.96875 0.28125 24.738281 1.0625 21.03125 1.0625 Z M 21.03125 -5.78125 C 24.257812 -5.78125 26.820312 -6.914062 28.71875 -9.1875 C 30.625 -11.46875 31.578125 -14.34375 31.578125 -17.8125 C 31.578125 -21.332031 30.625 -24.21875 28.71875 -26.46875 C 26.820312 -28.726562 24.257812 -29.859375 21.03125 -29.859375 C 17.84375 -29.859375 15.285156 -28.726562 13.359375 -26.46875 C 11.441406 -24.21875 10.484375 -21.332031 10.484375 -17.8125 C 10.484375 -14.34375 11.441406 -11.46875 13.359375 -9.1875 C 15.285156 -6.914062 17.84375 -5.78125 21.03125 -5.78125 Z M 21.03125 -5.78125 "/></g></g></g><g fill="#ffffff" fill-opacity="1"><g transform="translate(148.607845, 52.536827)"><g><path d="M 25.375 -36.0625 L 25.375 -28.71875 C 24.757812 -29.101562 24.128906 -29.316406 23.484375 -29.359375 C 22.847656 -29.410156 22.195312 -29.390625 21.53125 -29.296875 C 19.769531 -29.203125 18.175781 -28.535156 16.75 -27.296875 C 15.320312 -26.066406 14.203125 -24.40625 13.390625 -22.3125 C 12.585938 -20.21875 12.1875 -17.816406 12.1875 -15.109375 L 12.1875 0 L 4.484375 0 L 4.484375 -35.640625 L 12.1875 -35.640625 L 12.1875 -28.515625 C 13.332031 -31.128906 14.769531 -33.144531 16.5 -34.5625 C 18.238281 -35.988281 20.175781 -36.703125 22.3125 -36.703125 C 22.925781 -36.703125 23.484375 -36.644531 23.984375 -36.53125 C 24.484375 -36.414062 24.945312 -36.257812 25.375 -36.0625 Z M 25.375 -36.0625 "/></g></g></g><g fill="#ffffff" fill-opacity="1"><g transform="translate(176.473852, 52.536827)"><g><path d="M 32.796875 -7.0625 C 33.171875 -6.675781 33.691406 -6.484375 34.359375 -6.484375 C 35.210938 -6.484375 36.101562 -6.707031 37.03125 -7.15625 C 37.957031 -7.613281 38.5625 -7.960938 38.84375 -8.203125 L 38.84375 -1.140625 C 38.28125 -0.523438 37.519531 -0.0507812 36.5625 0.28125 C 35.613281 0.613281 34.648438 0.828125 33.671875 0.921875 C 32.703125 1.015625 31.882812 1.039062 31.21875 1 C 29.9375 1 28.890625 0.722656 28.078125 0.171875 C 27.273438 -0.367188 26.644531 -0.992188 26.1875 -1.703125 C 25.738281 -2.421875 25.429688 -3.0625 25.265625 -3.625 C 25.097656 -4.195312 25.015625 -4.535156 25.015625 -4.640625 L 25.015625 -11.046875 C 23.691406 -7.535156 21.816406 -4.640625 19.390625 -2.359375 C 16.960938 -0.078125 14.300781 1.0625 11.40625 1.0625 C 10.03125 1.0625 8.640625 0.753906 7.234375 0.140625 C 5.828125 -0.472656 4.671875 -1.445312 3.765625 -2.78125 C 2.867188 -4.113281 2.421875 -5.820312 2.421875 -7.90625 C 2.421875 -10.1875 2.953125 -12.132812 4.015625 -13.75 C 5.085938 -15.375 6.457031 -16.742188 8.125 -17.859375 C 9.789062 -18.972656 11.503906 -19.9375 13.265625 -20.75 C 15.109375 -21.550781 16.96875 -22.25 18.84375 -22.84375 C 20.726562 -23.4375 22.550781 -23.992188 24.3125 -24.515625 C 23.644531 -26.367188 22.597656 -27.6875 21.171875 -28.46875 C 19.742188 -29.257812 18.101562 -29.65625 16.25 -29.65625 C 14.820312 -29.65625 13.359375 -29.460938 11.859375 -29.078125 C 10.367188 -28.703125 9.015625 -28.21875 7.796875 -27.625 C 6.585938 -27.03125 5.628906 -26.375 4.921875 -25.65625 L 3.28125 -32.796875 C 4.375 -33.785156 6.15625 -34.671875 8.625 -35.453125 C 11.09375 -36.242188 13.707031 -36.640625 16.46875 -36.640625 C 21.789062 -36.640625 25.851562 -35.054688 28.65625 -31.890625 C 31.457031 -28.734375 32.835938 -24.472656 32.796875 -19.109375 Z M 25.09375 -19.453125 L 25.09375 -19.8125 C 25.09375 -19.863281 25.09375 -19.890625 25.09375 -19.890625 C 25.09375 -19.890625 25.09375 -19.910156 25.09375 -19.953125 C 23.757812 -19.578125 22.34375 -19.160156 20.84375 -18.703125 C 19.351562 -18.253906 17.800781 -17.675781 16.1875 -16.96875 C 14.707031 -16.34375 13.289062 -15.410156 11.9375 -14.171875 C 10.582031 -12.941406 9.90625 -11.445312 9.90625 -9.6875 C 9.90625 -8.21875 10.390625 -7.078125 11.359375 -6.265625 C 12.335938 -5.460938 13.421875 -5.0625 14.609375 -5.0625 C 16.367188 -5.0625 18.03125 -5.691406 19.59375 -6.953125 C 21.164062 -8.210938 22.460938 -9.921875 23.484375 -12.078125 C 24.503906 -14.242188 25.039062 -16.703125 25.09375 -19.453125 Z M 25.09375 -19.453125 "/></g></g></g></svg>