<svg version="1.2" xmlns="http://www.w3.org/2000/svg" viewBox="0 0 293 55" width="293" height="55">
	<title>1-svg</title>
	<style>
		.s0 { fill: #4dbbff } 
	</style>
	<g>
		<g>
			<g>
				<path class="s0" d="m30.9 2.3v10.6q-1.3-0.9-2.7-1-1.4-0.1-2.8 0.1-3.8 0.2-6.9 2.9-3 2.7-4.8 7.2-1.7 4.5-1.7 10.3v21.7h-11.1v-51.2h11.1v10.3q2.4-5.7 6.2-8.7 3.7-3.1 8.3-3.1 1.3 0 2.4 0.3 1.1 0.2 2 0.6z"/>
			</g>
		</g>
	</g>
	<g>
		<g>
			<g>
				<path fill-rule="evenodd" class="s0" d="m37.7 28.5q0-8.1 3.1-14.1 3-6.1 8.4-9.6 5.3-3.4 12.3-3.4 7.2 0 12.4 3.6 5.3 3.6 8 9.7 2.8 6 2.7 13.6 0 1.1-0.1 2.2-0.1 1.1-0.2 2.2h-34.4q0.9 6.4 5.5 9.8 4.6 3.3 10.5 3.3 3.9 0 8.3-1.5 4.4-1.5 7.9-3.9l2.3 8.9q-3.7 2.8-9 4.6-5.2 1.7-10.7 1.7-8.1 0-14.2-3.3-6.1-3.3-9.4-9.4-3.4-6.1-3.4-14.4zm11.7-3h23.5q-0.2-6-2.9-10.1-2.8-4.2-8.4-4.2-5 0-8.4 3.8-3.4 3.7-3.8 10.5z"/>
			</g>
		</g>
	</g>
	<g>
		<g>
			<g>
				<path class="s0" d="m90.5 49.3l2.6-9.3q3.9 2.3 9.3 4.1 5.5 1.7 10.2 1.7 4.3 0 6.6-1.4 2.4-1.5 2.4-3.6 0-2.1-2.1-3.6-2.1-1.5-5.4-2.9-3.3-1.4-7.1-3-3.8-1.6-7.1-3.8-3.4-2.2-5.4-5.3-2.1-3.1-2.1-7.5 0-6.3 4.7-9.8 4.7-3.5 13.1-3.5 6.6 0 12 1.8 5.4 1.9 9.4 4.1l-3 9.4q-3.9-2.1-8.2-3.8-4.3-1.7-9.1-1.7-3.6 0-5.6 1.2-2 1.2-2 3.5 0 2.6 2.1 4.4 2.1 1.8 5.5 3.2 3.4 1.5 7.1 3 3.7 1.5 7.1 3.4 3.4 2 5.5 4.8 2.1 2.7 2.1 6.8 0 6-5.4 10.1-5.3 4-14.8 4-6.4 0-12.3-1.8-5.8-1.9-10.1-4.5z"/>
			</g>
		</g>
	</g>
	<g>
		<g>
			<g>
				<path fill-rule="evenodd" class="s0" d="m166.8 55.6q-7.9 0-13.9-3.4-6.1-3.3-9.4-9.5-3.3-6.1-3.3-14.2 0-8.2 3.3-14.3 3.3-6 9.4-9.4 6-3.4 13.9-3.4 8 0 13.9 3.4 5.9 3.4 9.3 9.4 3.3 6.1 3.3 14.3 0 8.1-3.3 14.2-3.4 6.2-9.3 9.5-5.9 3.4-13.9 3.4zm0-9.8q7 0 11-4.9 4.1-4.9 4.1-12.4 0-7.6-4.1-12.4-4-4.9-11-4.9-6.9 0-11 4.9-4.1 4.8-4.1 12.4 0 7.5 4.1 12.4 4.1 4.9 11 4.9z"/>
			</g>
		</g>
	</g>
	<g>
		<g>
			<g>
				<path class="s0" d="m233.4 2.3v10.6q-1.4-0.9-2.8-1-1.3-0.1-2.7 0.1-3.8 0.2-6.9 2.9-3.1 2.7-4.8 7.2-1.8 4.5-1.8 10.3v21.7h-11v-51.2h11v10.3q2.5-5.7 6.2-8.7 3.8-3.1 8.4-3.1 1.3 0 2.4 0.3 1 0.2 2 0.6z"/>
			</g>
		</g>
	</g>
	<g>
		<g>
			<g>
				<path fill-rule="evenodd" class="s0" d="m284 43.9q0.8 0.9 2.2 0.9 1.9 0 3.9-1 2-1 2.6-1.5v10.1q-1.3 1.4-3.3 2.1-2 0.7-4.1 0.9-2.1 0.2-3.6 0.1-2.7 0-4.5-1.2-1.7-1.1-2.7-2.7-1-1.5-1.3-2.7-0.4-1.3-0.4-1.5v-9.2q-2.8 7.6-8 12.5-5.3 4.9-11.5 4.9-3 0-6-1.3-3-1.3-4.9-4.2-2-2.9-2-7.4 0-4.9 2.3-8.4 2.3-3.4 5.9-5.8 3.6-2.4 7.4-4.2 4-1.7 8-3 4-1.3 7.8-2.4-1.4-4-4.5-5.7-3-1.7-7-1.7-3.1 0-6.3 0.9-3.2 0.8-5.9 2-2.6 1.3-4.1 2.9l-2.4-10.3q2.4-2.1 7.7-3.8 5.3-1.7 11.3-1.7 11.4 0 17.5 6.8 6 6.8 5.9 18.4zm-11.1-17.8c0-0.1 0-0.6 0-0.6q0 0 0-0.1-2.8 0.8-6.1 1.7-3.2 1-6.6 2.5-3.2 1.4-6.1 4-2.9 2.7-2.9 6.5 0 3.2 2.1 4.9 2 1.7 4.6 1.7 3.8 0 7.2-2.7 3.3-2.7 5.5-7.3 2.2-4.7 2.3-10.6z"/>
			</g>
		</g>
	</g>
</svg>